<?xml version="1.0" standalone="no"?>
<!DOCTYPE svg PUBLIC "-//W3C//DTD SVG 20010904//EN"
 "http://www.w3.org/TR/2001/REC-SVG-20010904/DTD/svg10.dtd">
<svg version="1.0" xmlns="http://www.w3.org/2000/svg"
 width="700.000000pt" height="700.000000pt" viewBox="0 0 700.000000 700.000000"
 preserveAspectRatio="xMidYMid meet">
<metadata>
Created by potrace 1.11, written by Peter Selinger 2001-2013
</metadata>
<g transform="translate(0.000000,700.000000) scale(0.100000,-0.100000)"
fill="#f6fffe" stroke="none">
<path d="M498 6984 c-111 -26 -206 -82 -299 -174 -90 -90 -121 -137 -166 -254
l-28 -71 0 -2970 0 -2970 27 -73 c38 -104 83 -175 159 -251 77 -78 164 -131
274 -169 l80 -27 2935 0 c2818 0 2938 1 3000 18 230 65 412 247 477 477 17 62
18 183 18 3015 l0 2950 -24 74 c-52 156 -173 295 -324 370 -155 78 132 71
-3137 70 -2473 -1 -2944 -3 -2992 -15z m3830 -1656 c-3 -13 -182 -688 -398
-1501 -216 -813 -390 -1480 -388 -1482 3 -3 695 286 1988 831 28 12 32 17 20
24 -9 5 -329 124 -710 266 -382 141 -698 260 -702 263 -5 5 117 492 125 496 1
1 473 -183 1049 -409 l1048 -411 -3 -204 -2 -204 -125 -54 c-69 -30 -323 -141
-565 -248 -242 -106 -862 -378 -1377 -604 l-937 -411 -301 0 -302 0 7 28 c10
39 965 3604 971 3625 5 16 28 17 306 17 l300 0 -4 -22z m-958 -475 c0 -5 -40
-150 -89 -323 -66 -234 -93 -317 -107 -326 -11 -6 -412 -175 -891 -375 -480
-200 -873 -366 -873 -369 0 -3 322 -124 715 -269 393 -145 715 -267 715 -270
0 -14 -123 -477 -129 -483 -3 -4 -474 170 -1045 387 -571 217 -1040 395 -1042
395 -3 0 -3 102 -2 227 l3 228 1365 592 c751 325 1368 592 1373 592 4 1 7 -2
7 -6z"/>
</g>
</svg>
